<?xml version="1.0" encoding="UTF-8" standalone="no"?>
<!-- Generator: Adobe Illustrator 17.0.2, SVG Export Plug-In . SVG Version: 6.00 Build 0)  -->
<!DOCTYPE svg  PUBLIC '-//W3C//DTD SVG 1.1//EN'  'http://www.w3.org/Graphics/SVG/1.1/DTD/svg11.dtd'>
<svg id="Layer_1" xmlns="http://www.w3.org/2000/svg" xml:space="preserve" height="27px" viewBox="0 0 120 27" width="120px" version="1.1" y="0px" x="0px" xmlns:xlink="http://www.w3.org/1999/xlink" enable-background="new 0 0 120 27">
<g fill="#DD4814">
	<path clip-rule="evenodd" d="m112.82 0.052c3.965 0 7.182 3.214 7.182 7.181 0 3.966-3.217 7.181-7.182 7.181-3.969 0-7.183-3.215-7.183-7.181-0.01-3.967 3.21-7.181 7.18-7.181zm-3.62 7.181c0 0.475-0.389 0.861-0.866 0.861-0.476 0-0.861-0.387-0.861-0.861 0-0.478 0.385-0.863 0.861-0.863 0.48 0 0.87 0.385 0.87 0.863zm6.48 3.374c0.241 0.412 0.098 0.942-0.316 1.177-0.411 0.239-0.939 0.099-1.179-0.318-0.236-0.409-0.093-0.937 0.316-1.174 0.41-0.239 0.94-0.098 1.18 0.315zm-4.4-1.312l-0.63 1.055c-0.757-0.503-1.319-1.275-1.552-2.177 0.275-0.224 0.446-0.562 0.446-0.94 0-0.38-0.17-0.718-0.446-0.942 0.233-0.904 0.795-1.674 1.552-2.179l0.63 1.059c-0.648 0.455-1.072 1.211-1.072 2.063 0 0.85 0.43 1.605 1.07 2.061zm0.39-4.349l-0.6-1.074c0.502-0.246 1.065-0.387 1.66-0.387 0.349 0 0.685 0.048 1.004 0.134 0.057 0.347 0.26 0.665 0.588 0.853 0.327 0.192 0.707 0.208 1.037 0.088 0.638 0.624 1.053 1.481 1.114 2.43l-1.232 0.021c-0.112-1.289-1.192-2.301-2.512-2.301-0.38 0-0.74 0.086-1.06 0.236zm3.57 2.511l1.232 0.017c-0.062 0.95-0.476 1.803-1.114 2.434-0.33-0.126-0.708-0.106-1.037 0.082-0.328 0.187-0.531 0.506-0.588 0.856-0.32 0.089-0.655 0.133-1.004 0.133-0.594 0-1.158-0.137-1.66-0.386l0.6-1.074c0.322 0.15 0.683 0.235 1.06 0.235 1.32 0 2.4-1.011 2.51-2.297zm-1.06-4.462c0.241-0.412 0.768-0.553 1.179-0.317 0.414 0.238 0.556 0.768 0.316 1.179-0.238 0.415-0.766 0.555-1.179 0.316-0.41-0.239-0.56-0.767-0.32-1.178z" fill-rule="evenodd"/>
		<path d="m14.363 26.077c-0.728 0.182-1.693 0.378-2.89 0.581-1.198 0.206-2.583 0.309-4.154 0.309-1.37 0-2.52-0.201-3.457-0.6-0.934-0.398-1.685-0.962-2.255-1.693-0.571-0.729-0.981-1.592-1.232-2.582-0.252-0.992-0.375-2.091-0.375-3.301v-9.984h3.179v9.301c0 2.167 0.341 3.718 1.027 4.651 0.685 0.935 1.835 1.401 3.454 1.401 0.341 0 0.695-0.011 1.06-0.034 0.365-0.022 0.709-0.05 1.025-0.084 0.32-0.035 0.612-0.07 0.874-0.103 0.262-0.035 0.449-0.073 0.565-0.121v-15.011h3.18l-0.001 17.27z"/>
		<path d="m22.125 9.592c0.389-0.25 0.977-0.513 1.763-0.785 0.785-0.273 1.69-0.411 2.718-0.411 1.276 0 2.41 0.229 3.401 0.683 0.994 0.456 1.83 1.096 2.515 1.916 0.681 0.82 1.199 1.8 1.553 2.941 0.355 1.139 0.532 2.394 0.532 3.763 0 1.434-0.21 2.729-0.633 3.882-0.422 1.149-1.02 2.124-1.795 2.922-0.776 0.8-1.709 1.413-2.806 1.846-1.09 0.435-2.321 0.651-3.691 0.651-1.481 0-2.792-0.104-3.932-0.309-1.139-0.205-2.073-0.411-2.805-0.615v-25.476l3.182-0.548v9.539h-0.002zm0 14.226c0.32 0.094 0.77 0.179 1.353 0.258 0.58 0.082 1.302 0.12 2.17 0.12 1.708 0 3.079-0.565 4.104-1.693 1.027-1.129 1.54-2.731 1.54-4.804 0-0.912-0.091-1.767-0.275-2.566-0.183-0.798-0.481-1.487-0.89-2.069-0.411-0.582-0.941-1.035-1.588-1.367-0.653-0.332-1.434-0.498-2.344-0.498-0.868 0-1.665 0.15-2.394 0.443-0.731 0.299-1.288 0.606-1.677 0.926v11.25h0.001z"/>
		<path d="m52.356 26.077c-0.73 0.182-1.692 0.378-2.888 0.581-1.197 0.206-2.582 0.309-4.157 0.309-1.367 0-2.519-0.201-3.454-0.6-0.934-0.398-1.687-0.962-2.256-1.693-0.573-0.729-0.981-1.592-1.232-2.582-0.251-0.993-0.375-2.091-0.375-3.302v-9.983h3.179v9.301c0 2.167 0.341 3.718 1.025 4.651 0.686 0.935 1.834 1.401 3.454 1.401 0.342 0 0.698-0.011 1.062-0.034 0.365-0.022 0.705-0.05 1.025-0.084 0.319-0.035 0.61-0.07 0.873-0.103 0.26-0.035 0.448-0.073 0.564-0.121v-15.011h3.179v17.27h0.001z"/>
		<path d="m56.938 9.32c0.73-0.184 1.697-0.376 2.908-0.584 1.208-0.202 2.598-0.305 4.171-0.305 1.416 0 2.589 0.2 3.524 0.598 0.935 0.399 1.681 0.956 2.239 1.676 0.559 0.717 0.952 1.58 1.181 2.579 0.226 1.008 0.341 2.111 0.341 3.319v9.987h-3.18v-9.302c0-1.096-0.075-2.029-0.222-2.804-0.148-0.777-0.394-1.401-0.735-1.88-0.34-0.481-0.798-0.828-1.37-1.043-0.568-0.22-1.277-0.328-2.117-0.328-0.343 0-0.698 0.013-1.058 0.035-0.366 0.023-0.714 0.051-1.044 0.085-0.334 0.033-0.628 0.075-0.89 0.12-0.263 0.046-0.451 0.081-0.564 0.102v15.013h-3.182v-17.268h-0.002z"/>
		<path d="m78.652 8.807h6.738v2.667h-6.738v8.208c0 0.888 0.069 1.626 0.208 2.205 0.136 0.583 0.341 1.04 0.615 1.369 0.274 0.328 0.616 0.562 1.025 0.7 0.412 0.136 0.891 0.204 1.436 0.204 0.98 0 1.755-0.107 2.328-0.325 0.568-0.216 0.956-0.369 1.16-0.462l0.683 2.602c-0.317 0.16-0.883 0.364-1.691 0.613-0.81 0.253-1.726 0.379-2.752 0.379-1.209 0-2.207-0.154-2.993-0.463-0.786-0.308-1.419-0.768-1.898-1.384-0.479-0.614-0.816-1.372-1.007-2.273-0.196-0.902-0.292-1.945-0.292-3.129v-15.87l3.178-0.549v5.508z"/>
		<path d="m102.7 26.077c-0.732 0.182-1.693 0.378-2.892 0.581-1.196 0.206-2.58 0.309-4.151 0.309-1.37 0-2.52-0.201-3.455-0.6-0.937-0.398-1.688-0.962-2.258-1.693-0.571-0.729-0.979-1.592-1.234-2.582-0.248-0.993-0.376-2.091-0.376-3.302v-9.983h3.183v9.301c0 2.167 0.342 3.718 1.025 4.651 0.683 0.935 1.836 1.401 3.455 1.401 0.341 0 0.693-0.011 1.06-0.034 0.362-0.022 0.706-0.05 1.025-0.084 0.318-0.035 0.612-0.07 0.872-0.103 0.263-0.035 0.452-0.073 0.567-0.121v-15.011h3.182v17.269z"/>
</g>
</svg>
